<svg height="511pt" viewBox="-59 1 511 511.99915" width="511pt" xmlns="http://www.w3.org/2000/svg"><path d="m364.144531 504.5h-334.3125c-12.058593 0-21.832031-9.777344-21.832031-21.832031v-453.332031c0-12.058594 9.773438-21.835938 21.832031-21.835938h264.824219l91.324219 86.832031v388.332031c-.003907 12.058594-9.777344 21.835938-21.835938 21.835938zm0 0" fill="#f4f4f4"/><path d="m294.65625 7.5h-39.265625l91.324219 86.832031v388.332031c0 12.058594-9.777344 21.835938-21.832032 21.835938h39.261719c12.058594 0 21.832031-9.777344 21.832031-21.835938v-388.332031zm0 0" fill="#e8e8e8"/><path d="m346.714844 57-52.058594-49.5h-264.824219c-12.058593 0-21.832031 9.777344-21.832031 21.835938v27.664062zm0 0" fill="#c1e4f1"/><path d="m265.988281 57h80.726563l-52.058594-49.5h-28.667969zm0 0" fill="#a8c6d1"/><path d="m294.65625 7.5v65c0 12.058594 9.773438 21.832031 21.832031 21.832031h69.488281zm0 0" fill="#dedcdd"/><path d="m8 366.203125v116.460937c0 12.058594 9.773438 21.835938 21.832031 21.835938h334.3125c12.058594 0 21.832031-9.777344 21.832031-21.835938v-116.460937zm0 0" fill="#c1e4f1"/><path d="m346.714844 482.667969c0 12.054687-9.777344 21.832031-21.832032 21.832031h39.261719c.378907 0 .75-.011719 1.125-.027344 1.488281-.078125 2.9375-.300781 4.332031-.660156.699219-.179688 1.382813-.394531 2.050782-.636719.667968-.246093 1.324218-.523437 1.960937-.828125 2.226563-1.074218 4.242188-2.511718 5.972657-4.242187.492187-.496094.964843-1.011719 1.40625-1.550781.222656-.269532.441406-.546876.648437-.824219 1.257813-1.683594 2.28125-3.550781 3.015625-5.558594.242188-.667969.457031-1.351563.636719-2.050781.449219-1.742188.6875-3.570313.6875-5.453125v-116.464844h-39.265625zm0 0" fill="#a8c6d1"/><path d="m385.976562 133.152344c4.144532 0 7.5-3.355469 7.5-7.5v-31.316406c0-2.054688-.839843-4.019532-2.332031-5.4375l-91.3125-86.824219s-.003906-.003907-.007812-.007813c-.003907-.003906-.007813-.007812-.011719-.011718-2.140625-2.0273442-4.742188-2.0625005-4.644531-2.0351568-.492188-.0351562 11.886719-.0117187-265.335938-.0195312-16.171875 0-29.332031 13.160156-29.332031 29.335938v453.332031c0 16.171875 13.160156 29.332031 29.332031 29.332031h334.3125c16.175781 0 29.332031-13.160156 29.332031-29.332031v-329.015625c0-4.140625-3.355468-7.5-7.5-7.5-4.140624 0-7.5 3.359375-7.5 7.5v205.050781h-286.957031c-4.140625 0-7.5 3.359375-7.5 7.5 0 4.144531 3.359375 7.5 7.5 7.5h286.957031v108.964844c0 7.902343-6.429687 14.332031-14.332031 14.332031h-334.3125c-7.902343 0-14.332031-6.429688-14.332031-14.332031v-108.964844h48.019531c4.144531 0 7.5-3.355469 7.5-7.5 0-4.140625-3.355469-7.5-7.5-7.5h-48.019531v-294.203125h271.65625v8c0 16.175781 13.15625 29.335938 29.332031 29.335938h61.988281v23.816406c0 4.144531 3.359376 7.5 7.5 7.5zm-370.476562-83.648438v-20.167968c0-7.902344 6.429688-14.332032 14.332031-14.332032h257.324219v34.5zm300.988281 37.332032c-7.902343 0-14.332031-6.429688-14.332031-14.335938v-47.519531l65.050781 61.855469zm0 0"/><path d="m142.964844 415.546875c5.371094 0 10.238281 2.230469 13.875 6.070313 3.128906 3.3125 8.78125 1.117187 8.78125-3.496094 0-1.390625-.558594-2.648438-1.453125-3.574219-5.476563-5.652344-13.023438-8.945313-21.203125-8.945313-16.40625 0-29.753906 13.34375-29.753906 29.75s13.347656 29.753907 29.753906 29.753907c8.179687 0 15.726562-3.292969 21.203125-8.949219.898437-.925781 1.453125-2.183594 1.453125-3.570312 0-4.613282-5.648438-6.808594-8.78125-3.5-3.636719 3.84375-8.503906 6.074218-13.875 6.074218-10.710938 0-19.382813-8.839844-19.382813-19.808594 0-10.964843 8.671875-19.804687 19.382813-19.804687zm0 0"/><path d="m199.335938 455.160156c-5.679688 0-11.257813-2.105468-16.195313-4.613281-3.335937-1.699219-7.285156.738281-7.285156 4.472656 0 1.890625 1.042969 3.53125 2.578125 4.394531 19.367187 10.746094 43.9375 5.671876 43.9375-11.648437 0-12.835937-12.582032-15.472656-23.375-17.429687-7.152344-1.292969-11.984375-1.953126-12.011719-6.664063-.015625-3.960937 3.425781-8.125 12.09375-8.125 5.796875 0 10.875 1.859375 15.355469 4.28125 3.28125 1.777344 7.363281-.585937 7.363281-4.390625 0-1.90625-1.070313-3.566406-2.640625-4.40625-22.996094-12.257812-42.515625-2.078125-42.539062 13.074219-.039063 22.832031 35.328124 12.960937 35.421874 23.992187.054688 5.953125-8.625 7.0625-12.703124 7.0625zm0 0"/><path d="m257.730469 455.160156c-5.679688 0-11.253907-2.105468-16.195313-4.613281-3.335937-1.699219-7.285156.738281-7.285156 4.472656 0 1.890625 1.042969 3.53125 2.578125 4.394531 19.367187 10.746094 43.9375 5.671876 43.9375-11.648437 0-12.835937-12.582031-15.472656-23.375-17.429687-7.152344-1.292969-11.984375-1.953126-12.011719-6.664063-.015625-3.960937 3.425782-8.125 12.09375-8.125 10.019532 0 14.609375 4.878906 17.726563 4.878906 5.160156 0 6.9375-6.945312 2.351562-9.394531-22.996093-12.257812-42.515625-2.078125-42.539062 13.074219-.039063 22.832031 35.328125 12.960937 35.425781 23.992187.050781 5.953125-8.628906 7.0625-12.707031 7.0625zm0 0"/></svg>