<svg width="49" height="46" viewBox="0 0 49 46" fill="none" xmlns="http://www.w3.org/2000/svg">
<path d="M32.8953 45.5806C32.6567 45.6631 32.4166 45.7629 32.1711 45.8042C31.2304 45.9652 30.6283 45.4995 30.6227 44.5772C30.6103 42.8645 30.6102 41.1545 30.6394 39.4418C30.6699 37.4723 30.6227 35.528 29.0591 33.9032C29.9887 33.7435 30.8156 33.6317 31.6244 33.4534C36.9826 32.273 39.7657 29.0312 40.1208 23.6509C40.3026 20.9122 39.7934 18.3997 37.8955 16.2426C37.7581 16.0909 37.7512 15.7462 37.8164 15.5253C38.3214 13.7421 38.1743 12.0001 37.5861 10.2568C37.4404 9.82162 37.199 9.68721 36.7509 9.71516C35.1776 9.799 33.736 10.3286 32.4652 11.1431C31.2401 11.9322 30.0997 12.1039 28.6443 11.7845C25.4394 11.0912 22.2137 11.2934 19.0158 12.0041C18.6537 12.0866 18.1667 11.9761 17.8351 11.7898C16.334 10.9461 14.8328 10.1264 13.1013 9.799C11.7625 9.54881 11.646 9.61269 11.2908 10.8543C10.844 12.4193 10.7996 13.9856 11.2561 15.5599C11.3213 15.7888 11.2533 16.1561 11.0938 16.3251C7.5462 20.1217 8.83093 27.2959 11.2214 30.0439C13.0805 32.1785 15.5501 33.1393 18.2916 33.6383C18.7702 33.7235 19.2461 33.7887 19.7248 33.8686C19.3141 34.8933 18.945 35.8607 18.5274 36.8122C18.4456 36.9959 18.1861 37.1502 17.9739 37.2274C15.2851 38.2282 12.9737 37.4922 11.4351 35.1514C10.6123 33.9032 9.55654 32.9703 7.98323 32.7002C7.93329 32.6908 7.88195 32.6656 7.83617 32.6722C7.41301 32.7787 6.99402 32.8905 6.57225 32.9996C6.8095 33.3163 6.97737 33.7421 7.29508 33.9324C8.62837 34.7415 9.49549 35.8953 10.0685 37.2567C10.9689 39.3912 12.717 40.3427 14.9882 40.529C16.0967 40.6155 17.2163 40.5424 18.4303 40.5424C18.4303 41.8678 18.4803 43.3809 18.4095 44.8873C18.3734 45.6991 17.523 46.0238 16.5046 45.6911C13.8034 44.8048 11.2991 43.5339 9.13616 41.748C1.32651 35.2951 -1.68413 27.1375 0.911682 17.5893C3.49917 8.07166 10.2433 2.23359 20.3269 0.401126C34.2799 -2.12999 47.4976 7.61654 48.8822 21.2023C49.9755 31.9123 43.4034 41.9343 32.8953 45.5806ZM19.7414 33.818C19.7331 33.8366 19.7275 33.8499 19.7192 33.8686C19.7442 33.8726 19.7691 33.8765 19.7955 33.8805C19.8149 33.8819 19.8316 33.9151 19.7414 33.818ZM13.4288 38.0512C13.6466 38.1802 13.8547 38.3439 14.0905 38.4145C14.1766 38.4411 14.3361 38.2534 14.6178 38.0538C14.2265 37.9114 13.9962 37.7863 13.7534 37.7544C13.6591 37.7438 13.537 37.9474 13.4288 38.0512ZM15.4169 38.3785C15.4488 38.5183 15.7388 38.6926 15.9094 38.6899C16.0745 38.6873 16.2355 38.477 16.4006 38.3572C16.2507 38.2255 16.1009 38.0977 15.6403 37.6998C15.5404 37.9766 15.3753 38.2002 15.4169 38.3785ZM17.8559 37.8156C17.6506 37.8622 17.4772 38.0445 17.2899 38.1696C17.3995 38.3027 17.5091 38.4264 17.6853 38.6354C17.9281 38.4224 18.0932 38.2747 18.2597 38.131C18.1209 38.0152 17.9586 37.7917 17.8559 37.8156ZM11.8097 37.0265C11.9234 37.2327 12.0996 37.4111 12.3383 37.7025C12.4978 37.4523 12.6712 37.2607 12.6407 37.2221C12.4895 37.0318 12.2842 36.8761 12.0816 36.7337C12.0677 36.7231 11.7861 36.9812 11.8097 37.0265Z" fill="#E7EB43"/>
</svg>
