<svg width="49" height="46" viewBox="0 0 49 46" fill="none" xmlns="http://www.w3.org/2000/svg">
<g clip-path="url(#clip0)">
<path d="M24.5 0C10.9711 0 0 10.4552 0 23.3478C0 36.2405 10.9711 46.6957 24.5 46.6957C38.0289 46.6957 49 36.2405 49 23.3478C49 10.4552 38.0289 0 24.5 0ZM17.3806 35.2954H11.4137V18.1881H17.3806V35.2954ZM14.3973 15.8521H14.3585C12.3562 15.8521 11.0612 14.5386 11.0612 12.897C11.0612 11.2183 12.3958 9.94107 14.437 9.94107C16.4781 9.94107 17.7342 11.2183 17.7731 12.897C17.7731 14.5386 16.4781 15.8521 14.3973 15.8521ZM38.8958 35.2954H32.9297V26.1434C32.9297 23.8434 32.0658 22.2748 29.9069 22.2748C28.2586 22.2748 27.2769 23.3329 26.8455 24.3543C26.6877 24.7198 26.6492 25.2307 26.6492 25.7419V35.2954H20.6827C20.6827 35.2954 20.7608 19.7931 20.6827 18.1881H26.6492V20.6103C27.4421 19.4447 28.8608 17.7866 32.0265 17.7866C35.9522 17.7866 38.8958 20.2316 38.8958 25.4861V35.2954Z" fill="#E7EB43"/>
</g>
<defs>
<clipPath id="clip0">
<rect width="49" height="45.84" fill="white"/>
</clipPath>
</defs>
</svg>
