<svg width="49" height="46" viewBox="0 0 49 46" fill="none" xmlns="http://www.w3.org/2000/svg">
<g clip-path="url(#clip0)">
<path d="M19.7188 18.162C19.7188 15.9997 18.1463 15.9997 18.1463 15.9997H17.3137H11.6768V20.6395H17.7453C18.7939 20.639 19.7188 20.3253 19.7188 18.162Z" fill="#E7EB43"/>
<path d="M18.1468 23.8443H11.6768V29.4014H17.848C18.7764 29.3765 20.4898 29.1045 20.4898 26.7002C20.4898 23.8152 18.1468 23.8443 18.1468 23.8443Z" fill="#E7EB43"/>
<path d="M34.71 20.639C31.2768 20.639 30.7981 23.8443 30.7981 23.8443H38.0992C38.0997 23.8443 38.1433 20.639 34.71 20.639Z" fill="#E7EB43"/>
<path d="M24.5 0C10.969 0 0 10.2621 0 22.92C0 35.5779 10.969 45.84 24.5 45.84C38.031 45.84 49 35.5779 49 22.92C49 10.2621 38.031 0 24.5 0ZM29.8416 13.5283H39.012V16.0888H29.8416V13.5283ZM25.2068 26.9581C25.2068 33.3045 18.1468 33.0958 18.1468 33.0958H11.6768H11.4868H6.58079V12.3034H11.4868H11.6768H18.1463C21.6613 12.3034 24.4358 14.1187 24.4358 17.8394C24.4358 21.5605 21.0442 21.7964 21.0442 21.7964C25.5151 21.7964 25.2068 26.9581 25.2068 26.9581ZM34.7537 30.2375C38.4481 30.2375 38.3172 28.0006 38.3172 28.0006H42.2287C42.2287 33.9371 34.6233 33.5305 34.6233 33.5305C25.4965 33.5305 26.0835 25.5818 26.0835 25.5818C26.0835 25.5818 26.0765 17.5936 34.6223 17.5936C43.6188 17.5936 42.3591 26.6186 42.3591 26.6186H30.8422C30.8422 30.4823 34.7537 30.2375 34.7537 30.2375Z" fill="#E7EB43"/>
</g>
<defs>
<clipPath id="clip0">
<rect width="49" height="45.84" fill="white"/>
</clipPath>
</defs>
</svg>
